<?xml version="1.0" encoding="iso-8859-1"?>
<!-- Generator: Adobe Illustrator 19.0.0, SVG Export Plug-In . SVG Version: 6.00 Build 0)  -->
<svg version="1.1" id="Layer_1" xmlns="http://www.w3.org/2000/svg" xmlns:xlink="http://www.w3.org/1999/xlink" x="0px" y="0px"
	 viewBox="0 0 512 512" style="enable-background:new 0 0 512 512;" xml:space="preserve">
<g>
	<g>
		<path d="M366.059,324.915c44.671-46.948,82.594-94.717,108.211-136.514c16.178-26.397,27.251-50.182,32.912-70.692
			c14.078-51.002-5.887-80.69-19.042-93.848C474.98,10.708,445.294-9.26,394.29,4.819c-20.512,5.661-44.296,16.734-70.692,32.912
			c-36.183,22.177-77.092,53.735-118.305,91.262c-3.372,3.071-3.616,8.293-0.546,11.665c3.072,3.372,8.294,3.618,11.666,0.546
			c40.457-36.838,80.505-67.75,115.814-89.392c25.076-15.369,47.436-25.823,66.455-31.073c42.933-11.852,67.162,4.187,77.779,14.802
			c10.616,10.618,26.652,34.84,14.8,77.777c-5.249,19.018-15.703,41.378-31.073,66.455
			c-28.761,46.925-73.553,101.72-126.124,154.293c-52.576,52.573-107.371,97.365-154.294,126.125
			c-25.076,15.369-47.436,25.823-66.455,31.073c-10.724,2.959-20.276,4.18-28.744,4.179c-25.438-0.003-41.068-11.02-49.032-18.983
			c-10.616-10.618-26.654-34.839-14.8-77.778c5.249-19.019,15.703-41.378,31.073-66.454c21.642-35.311,52.553-75.359,89.393-115.816
			c3.07-3.372,2.825-8.594-0.546-11.665c-3.372-3.071-8.594-2.827-11.666,0.546c-37.527,41.213-69.085,82.122-91.262,118.305
			c-16.178,26.396-27.251,50.18-32.912,70.69c-14.079,51.003,5.887,80.691,19.043,93.849c9.977,9.974,29.45,23.864,60.516,23.862
			c9.908,0,20.999-1.414,33.332-4.818c20.512-5.661,44.296-16.734,70.692-32.912c41.793-25.616,89.563-63.539,136.512-108.211
			L458.76,509.357c1.627,1.741,3.829,2.62,6.037,2.62c2.018,0,4.043-0.735,5.634-2.223c3.333-3.112,3.511-8.338,0.399-11.671
			l-134.03-143.495c2.988-2.924,5.971-5.87,8.944-8.844c2.974-2.974,5.92-5.957,8.844-8.944L498.084,470.83
			c1.591,1.487,3.616,2.223,5.634,2.223c2.209,0,4.411-0.88,6.037-2.62c3.113-3.333,2.934-8.558-0.399-11.671L366.059,324.915z"/>
	</g>
</g>
<g>
	<g>
		<path d="M394.175,83.949c-4.269-1.596-9.028,0.57-10.626,4.841c-2.336,6.246-7.221,17.118-17.227,33.447
			c-11.691,19.076-27.212,40.441-45.355,62.646c-30.66-28.036-75.191-32.641-110.414-13.818L53.241,2.644
			c-3.114-3.33-8.339-3.511-11.671-0.397c-3.333,3.112-3.511,8.338-0.399,11.672l155.355,166.327
			c-2.991,2.352-5.888,4.882-8.645,7.638c-2.744,2.744-5.277,5.639-7.643,8.639L13.916,41.171
			c-3.331-3.114-8.556-2.934-11.672,0.397c-3.112,3.333-2.934,8.558,0.399,11.671l168.386,157.277
			c-7.423,13.824-11.365,29.35-11.365,45.482c0,24.277,8.928,47.177,25.216,64.97c-22.202,18.141-43.565,33.659-62.639,45.349
			c-16.32,10.001-27.199,14.89-33.451,17.229c-4.272,1.599-6.438,6.356-4.84,10.628c1.242,3.318,4.39,5.366,7.734,5.366
			c0.961,0,1.94-0.168,2.892-0.526c6.932-2.593,18.854-7.928,36.294-18.616c40.245-24.666,90.188-65.674,137.023-112.509
			c46.835-46.838,87.843-96.78,112.508-137.023c10.694-17.449,16.026-29.366,18.614-36.292
			C400.613,90.304,398.445,85.546,394.175,83.949z M256.215,256.214c-11.167,11.167-22.503,21.985-33.831,32.317
			c-17.703-18.286-17.534-47.556,0.528-65.617c18.062-18.062,47.331-18.231,65.617-0.53
			C278.2,233.71,267.382,245.047,256.215,256.214z M299.556,210.087c-24.769-23.509-64.033-23.138-88.32,1.148
			c-24.288,24.289-24.659,63.553-1.148,88.32c-4.179,3.684-8.348,7.292-12.497,10.818c-13.82-14.819-21.411-34.009-21.411-54.375
			c0-21.32,8.302-41.366,23.379-56.442c30.443-30.442,79.552-31.087,110.813-1.965C306.846,201.741,303.239,205.909,299.556,210.087
			z"/>
	</g>
</g>
<g>
</g>
<g>
</g>
<g>
</g>
<g>
</g>
<g>
</g>
<g>
</g>
<g>
</g>
<g>
</g>
<g>
</g>
<g>
</g>
<g>
</g>
<g>
</g>
<g>
</g>
<g>
</g>
<g>
</g>
</svg>
